# xmcd
#
# Track frame offsets: 
#        150
#        27224
#        51735
#        75656
#        102953
#        129144
#        150156
#        175481
#        201375
#        226470
#        247675
#        272723
#        291496
#        316528
#        332127
#
# Disc length: 4781 seconds
#
# Revision: 0
# Processed by: cddbd v1.5.2PL0 Copyright (c) Steve Scherf et al.
# Submitted via: ExactAudioCopyFreeDBPlugin 1.0
#
DISCID=c912ab0f
DTITLE=Various Artist - It's All About House Music Vol. 2 [CD1]
DYEAR=2008
DGENRE=Dance and Techno
TTITLE0=DJ Gomi feat. Louie Balo and Yasmeen - Glad I Found You
TTITLE1=Panevino - Freeze The Frame
TTITLE2=Alfred Azzeto feat. Geneive Allen - Colors Are Forever
TTITLE3=Lisa Shaw - All Night High
TTITLE4=Solu Music - Fade
TTITLE5=Hercules and Love Affair - Blind
TTITLE6=Samantha James - Breathe You In
TTITLE7=Crazy P - Love On The Line
TTITLE8=Fraud vs Peyton - Never Too Much Audio
TTITLE9=Peter Luts and Barbara Tucker - One
TTITLE10=Roisin Murphy - Overpowered
TTITLE11=Marcus Knight featuring Ladi Tash - The Power
TTITLE12=Back to Fundamentals by Torre - Higher
TTITLE13=Milk and Sugar - Higher and Higher
TTITLE14=Freemasons - If
EXTD=
EXTT0=
EXTT1=
EXTT2=
EXTT3=
EXTT4=
EXTT5=
EXTT6=
EXTT7=
EXTT8=
EXTT9=
EXTT10=
EXTT11=
EXTT12=
EXTT13=
EXTT14=
PLAYORDER=
